<svg width="64" height="64" viewBox="0 0 64 64" fill="none" xmlns="http://www.w3.org/2000/svg">
    <rect width="64" height="64" rx="18" fill="#0289F7"/>

    <g transform="translate(-4 -5)">
        <path d="M12 28C12 24.6863 14.6863 22 18 22C18.5534 22 19.0886 22.0748 19.5968 22.215C21.037 20.2526 23.3686 19 26 19C30.4183 19 34 22.5817 34 27C34 27.218 33.9912 27.4339 33.974 27.6472C34.619 27.2351 35.3824 27 36 27C38.2091 27 40 28.7909 40 31C40 33.2091 38.2091 35 36 35H18C14.6863 35 12 32.3137 12 29V28Z" stroke="white" stroke-width="2" stroke-linecap="round" stroke-linejoin="round"/>

        <rect x="36" y="14" width="24" height="18" rx="2" stroke="white" stroke-width="2"/>
        <path d="M42 14V32M48 14V32M54 14V32" stroke="white" stroke-width="2"/>
        <path d="M36 20H60" stroke="white" stroke-width="2"/>
        <circle cx="42" cy="17" r="1" fill="white"/>
        <circle cx="48" cy="17" r="1" fill="white"/>
        <circle cx="54" cy="17" r="1" fill="white"/>
        <circle cx="42" cy="24" r="1" fill="white"/>
        <circle cx="48" cy="27" r="1" fill="white"/>
        <circle cx="54" cy="24" r="1" fill="white"/>

        <rect x="16" y="38" width="18" height="22" rx="2" stroke="white" stroke-width="2"/>
        <path d="M20 44H30M20 49H30M20 54H26" stroke="white" stroke-width="2" stroke-linecap="round"/>
        <path d="M22 36V40M28 36V40" stroke="white" stroke-width="2" stroke-linecap="round"/>

        <rect x="40" y="42" width="20" height="18" rx="2" fill="white" fill-opacity="0.15" stroke="white" stroke-width="2"/>
        <path d="M44 54L48 50L52 52L56 46" stroke="white" stroke-width="2" stroke-linecap="round" stroke-linejoin="round"/>
    </g>
</svg>
